# xmcd
#
# Track frame offsets: 
#        150
#        13736
#        24137
#        36452
#        48850
#        59688
#        69347
#        81633
#        95218
#        109088
#        120498
#        132927
#        143293
#        155172
#        167327
#        176490
#        188671
#        197950
#        207016
#        217558
#        227528
#        238730
#        251588
#        273568
#        285485
#        294385
#        305927
#        316192
#        326775
#        338654
#        348908
#
# Disc length: 4757 seconds
#
# Revision: 0
# Processed by: cddbd v1.5.1PL2 Copyright (c) Steve Scherf et al.
# Submitted via: ExactAudioCopy v0.95a5
#
DISCID=c312931f
DTITLE=Various Artist - GOIN' DOWN TO ELI'S - The Cobra and ABCO Rhythm and Blues
DTITLE=Anthology 1956-1958
DYEAR=2001
DGENRE=Blues
TTITLE0=Sunnyland Slim - Highway 61
TTITLE1=Walter Horton - Have A Good Time
TTITLE2=Louis Meyers And The Aces - Just Whaling
TTITLE3=Harold Burrage - You Eat Too Much
TTITLE4=Betty Everett - Killer Diller
TTITLE5=Guitar Shorty - Irma Lee
TTITLE6=Morris Pejoe - Screaming And Crying
TTITLE7=Charles Clark And The Willie Dixon Band - Row Your Boat
TTITLE8=Sonny Boy Williamson II - Steady Rollin' Man
TTITLE9=Freddie Hall - Can This Be Mine
TTITLE10=Arbee Stidham - When I Find My Baby
TTITLE11=Harold Burrage - I Don't Care Who Knows
TTITLE12=Lee Jackson - Fishin' In My Pond
TTITLE13=Little Willie Foster - Crying The Blues
TTITLE14=Memphis Slim - I Wonder What's The Matter
TTITLE15=Louis Meyers And The Aces - Bluesy
TTITLE16=Harold Burrage - Messed Up
TTITLE17=Betty Everett - My Life Depends On You
TTITLE18=Sunnyland Slim - It's You Baby
TTITLE19=Guitar Shorty - You Don't Treat Me Right
TTITLE20=Clarence Jolly - Changing Love
TTITLE21=Morris Pejoe - Maybe Blues
TTITLE22=Sonny Boy Williamson II - Take Your Hand Out Of My Pocket
TTITLE23=Arbee Stidham - Meet Me Half Way
TTITLE24=Betty Everett - Ain't Gonna Cry
TTITLE25=Little Willie Foster - Little Girl
TTITLE26=Walter Horton - Need My Baby
TTITLE27=Lee Jackson - I'll Just Keep Walkin'
TTITLE28=Charles Clark And The Willie Dixon Band - Hidden Charms
TTITLE29=Memphis Slim - Best Gal I Ever Had
TTITLE30=Willie Dixon Band - Eli Toscano Blues
EXTD=
EXTT0=
EXTT1=
EXTT2=
EXTT3=
EXTT4=
EXTT5=
EXTT6=
EXTT7=
EXTT8=
EXTT9=
EXTT10=
EXTT11=
EXTT12=
EXTT13=
EXTT14=
EXTT15=
EXTT16=
EXTT17=
EXTT18=
EXTT19=
EXTT20=
EXTT21=
EXTT22=
EXTT23=
EXTT24=
EXTT25=
EXTT26=
EXTT27=
EXTT28=
EXTT29=
EXTT30=
PLAYORDER=
